<svg width="28" height="31" viewBox="0 0 28 31" fill="none" xmlns="http://www.w3.org/2000/svg">
<path d="M22.7954 29.6221C21.0441 31.2506 19.132 30.9934 17.2913 30.222C15.3435 29.4335 13.5564 29.3992 11.5013 30.222C8.92796 31.2849 7.56981 30.9763 6.03295 29.6221C-2.68783 20.9994 -1.40116 7.86836 8.49907 7.38837C10.9116 7.50837 12.5914 8.65691 14.0032 8.75976C16.1119 8.34834 18.1312 7.16552 20.3829 7.3198C23.0814 7.52551 25.1186 8.55405 26.4589 10.4054C20.8833 13.6111 22.2057 20.6566 27.3167 22.628C26.298 25.1993 24.9756 27.7535 22.7776 29.6392L22.7954 29.6221ZM13.8245 7.28552C13.5564 3.46276 16.791 0.308563 20.508 0C21.0263 4.42274 16.3263 7.71408 13.8245 7.28552Z" fill="white"/>
</svg>
