<svg width="35" height="32" viewBox="0 0 35 32" fill="none" xmlns="http://www.w3.org/2000/svg">
<path d="M30.9537 13.3886H29.8103V13.3333H17.0345V18.6666H25.057C23.8866 21.7713 20.7416 24 17.0345 24C12.3308 24 8.51725 20.418 8.51725 16C8.51725 11.582 12.3308 7.99996 17.0345 7.99996C19.2056 7.99996 21.1809 8.76929 22.6849 10.026L26.7001 6.25463C24.1648 4.03529 20.7735 2.66663 17.0345 2.66663C9.19508 2.66663 2.83911 8.63663 2.83911 16C2.83911 23.3633 9.19508 29.3333 17.0345 29.3333C24.8738 29.3333 31.2298 23.3633 31.2298 16C31.2298 15.106 31.1319 14.2333 30.9537 13.3886Z" fill="#FFC107"/>
<path d="M4.47583 9.79396L9.13971 13.0066C10.4017 10.072 13.4579 7.99996 17.0345 7.99996C19.2056 7.99996 21.1809 8.76929 22.6849 10.026L26.7001 6.25463C24.1648 4.03529 20.7735 2.66663 17.0345 2.66663C11.582 2.66663 6.85355 5.55796 4.47583 9.79396Z" fill="#FF3D00"/>
<path d="M17.0344 29.3333C20.701 29.3333 24.0327 28.0153 26.5517 25.872L22.1582 22.38C20.6851 23.4322 18.8851 24.0013 17.0344 24C13.3422 24 10.2071 21.7886 9.02608 18.7026L4.39697 22.0526C6.7463 26.3706 11.5174 29.3333 17.0344 29.3333Z" fill="#4CAF50"/>
<path d="M30.9537 13.3887H29.8102V13.3334H17.0344V18.6667H25.0569C24.4971 20.1443 23.4886 21.4355 22.1561 22.3807L22.1582 22.3794L26.5517 25.8714C26.2408 26.1367 31.2298 22.6667 31.2298 16C31.2298 15.106 31.1318 14.2334 30.9537 13.3887Z" fill="#1976D2"/>
</svg>
