<svg width="33" height="22" viewBox="0 0 33 22" fill="none" xmlns="http://www.w3.org/2000/svg">
<path fill-rule="evenodd" clip-rule="evenodd" d="M9.92038 0.0140862C7.32632 -0.157526 5.26084 1.28714 3.81662 3.10154C2.36427 4.92687 1.34129 7.34504 0.775311 9.76009C0.212587 12.1736 0.0710926 14.7353 0.52485 16.8804C0.967222 18.9647 2.09267 21.1083 4.46066 21.787C6.71969 22.4344 8.74615 21.514 10.2944 20.2643C11.846 19.0131 13.1894 17.2283 14.2725 15.5044C15.1215 14.1518 15.8469 12.7742 16.4161 11.5979C16.9853 12.7727 17.7107 14.1518 18.558 15.5044C19.6412 17.2283 20.9846 19.0131 22.5361 20.2643C24.0844 21.514 26.1109 22.4344 28.3699 21.787C30.7379 21.1083 31.8634 18.9647 32.3057 16.8804C32.7611 14.7353 32.618 12.1736 32.0553 9.76009C31.4893 7.34504 30.4663 4.92531 29.014 3.10154C27.5714 1.28714 25.5059 -0.159086 22.9118 0.0140862C20.0917 0.201299 18.0815 2.30589 16.9154 3.89564C16.7424 4.13322 16.5759 4.37512 16.4161 4.62109C16.2559 4.37501 16.0889 4.1331 15.9152 3.89564C14.7491 2.30433 12.7405 0.20286 9.92038 0.0140862ZM14.5555 7.85364C14.0953 8.96912 12.978 11.5168 11.485 13.8959C10.475 15.506 9.34953 16.9506 8.19969 17.8773C7.04984 18.8056 6.14721 19.0131 5.3942 18.7978C4.75016 18.6137 4.06546 17.9241 3.71253 16.2595C3.37425 14.6573 3.45719 12.5542 3.94998 10.4434C4.4444 8.33259 5.31288 6.36529 6.40255 4.99396C7.50035 3.61326 8.62905 3.0563 9.69432 3.12807C10.9401 3.21075 12.1827 4.22794 13.2528 5.68977C13.8513 6.5057 14.2986 7.331 14.5539 7.85208L14.5555 7.85364ZM18.2767 7.85364C18.7353 8.96912 19.8542 11.5168 21.3456 13.8959C22.3572 15.506 23.4827 16.9506 24.6309 17.8773C25.7824 18.8056 26.6834 19.0131 27.438 18.7978C28.0804 18.6137 28.7651 17.9241 29.118 16.2595C29.458 14.6573 29.375 12.5542 28.8806 10.4434C28.3862 8.33259 27.5193 6.36529 26.428 4.99396C25.3302 3.61326 24.2032 3.0563 23.1363 3.12807C21.8905 3.21075 20.6479 4.22794 19.5778 5.68977C19.082 6.37451 18.6468 7.0978 18.2767 7.85208V7.85364Z" fill="#5BADFF"/>
</svg>
