<svg width="21" height="16" viewBox="0 0 21 16" fill="none" xmlns="http://www.w3.org/2000/svg">
<path d="M8.65601 11.4628L13.846 8.24854L8.65601 5.03425V11.4628ZM20.216 3.07354C20.346 3.57711 20.436 4.25211 20.496 5.10925C20.566 5.96639 20.596 6.70568 20.596 7.34853L20.656 8.24854C20.656 10.595 20.496 12.32 20.216 13.4235C19.966 14.3878 19.386 15.0092 18.486 15.2771C18.016 15.4164 17.156 15.5128 15.836 15.5771C14.536 15.6521 13.346 15.6842 12.246 15.6842L10.656 15.7485C6.46601 15.7485 3.85601 15.5771 2.82601 15.2771C1.92601 15.0092 1.34601 14.3878 1.09601 13.4235C0.966006 12.92 0.876006 12.245 0.816006 11.3878C0.746006 10.5307 0.716006 9.79139 0.716006 9.14853L0.656006 8.24854C0.656006 5.90211 0.816006 4.17711 1.09601 3.07354C1.34601 2.10925 1.92601 1.48782 2.82601 1.21996C3.29601 1.08068 4.15601 0.984249 5.47601 0.919964C6.77601 0.844964 7.96601 0.812821 9.06601 0.812821L10.656 0.748535C14.846 0.748535 17.456 0.919964 18.486 1.21996C19.386 1.48782 19.966 2.10925 20.216 3.07354Z" fill="white"/>
</svg>
